<?xml version="1.0" encoding="utf-8"?>
<!-- Generator: Adobe Illustrator 27.0.0, SVG Export Plug-In . SVG Version: 6.00 Build 0)  -->
<svg version="1.1" id="Layer_1" xmlns="http://www.w3.org/2000/svg" xmlns:xlink="http://www.w3.org/1999/xlink" x="0px" y="0px"
	 viewBox="0 0 24 24" style="enable-background:new 0 0 24 24;" xml:space="preserve">
<style type="text/css">
	.st0{fill:#FFFFFF;}
</style>
<path class="st0" d="M20.5,17.1l-4.1-3.7c-0.4-0.4-1-0.3-1.4,0l-2.4,2.5c-0.6-0.1-1.7-0.5-2.9-1.7c-1.2-1.2-1.6-2.4-1.7-2.9L10.5,9
	c0.4-0.4,0.4-1,0-1.4L6.9,3.5c-0.4-0.4-1-0.4-1.4-0.1L3.3,5.3C3.1,5.5,3,5.7,3,5.9c0,0.2-0.3,6.2,4.3,10.8c4,4,9,4.3,10.4,4.3
	c0.2,0,0.3,0,0.4,0c0.2,0,0.5-0.1,0.6-0.3l1.9-2.2C20.9,18.1,20.9,17.5,20.5,17.1z"/>
</svg>
